# xmcd
#
# Track frame offsets:
#  150
#  20877
#  40005
#  53404
#  72352
#  91073
#  106416
#  126790
#  143528
#  177436
#  196376
#  241702
#  250384
#  265798
#  287520
#  305520
#  328394
#  345312
#
# Disc length: 4742 seconds
#
# Revision: 0
# Processed by: cddbd v1.5.2PL0 Copyright (c) Steve Scherf et al.
# Submitted via: AltoMP3_Maker 3.0
#
DISCID=fc128412
DTITLE=Marco Brasil - Marco Brasil 10 anos
DYEAR=1900
DGENRE=
TTITLE0=Abertura
TTITLE1=Caminheiro
TTITLE2=Canarinho Prisioneiro
TTITLE3=Merceditas
TTITLE4=Saudades da Minha Terra
TTITLE5=Mãe Ambrosa
TTITLE6=Amargurado
TTITLE7=Olho Amor
TTITLE8=Amor Clandestino
TTITLE9=Doidão Por Você
TTITLE10=Agenda Rabiscada
TTITLE11=Laço Aberto
TTITLE12=Bens Materiais
TTITLE13=Dia de Fortuna
TTITLE14=60 dias apaixonado
TTITLE15=Franguinho na Panela
TTITLE16=Estrada
TTITLE17=Casar pra quê
EXTD=
EXTT0=
EXTT1=
EXTT2=
EXTT3=
EXTT4=
EXTT5=
EXTT6=
EXTT7=
EXTT8=
EXTT9=
EXTT10=
EXTT11=
EXTT12=
EXTT13=
EXTT14=
EXTT15=
EXTT16=
EXTT17=
PLAYORDER=
